# xmcd
# 
# Track frame offsets:
#     150
#     21684
#     35717
#     56275
#     68707
#     85989
#     101340
#     119287
#     132453
#     148191
#     160390
# 
# Disc length: 2396
# 
# Revision: 2
# Processed by: cddbd v1.5.2PL0 Copyright (c) Steve Scherf et al.
# Submitted via: fre:ac v1.0.31
# 
DISCID=9f095a0b
DTITLE=Elvin Bishop - Red Dog Speaks
DYEAR=2010
DGENRE=Blues
TTITLE0=Red Dog Speaks
TTITLE1=Neighbor Neighbor
TTITLE2=Fat and Sassy
TTITLE3=Barbecue Boogie
TTITLE4=Many Rivers To Cross
TTITLE5=Blues Cruise
TTITLE6=Doo-Wop Medley
TTITLE7=Get Your Hand Out Of My Pocket
TTITLE8=His Bye On The Sparrow
TTITLE9=Clean Livin'
TTITLE10=Midnight Hour Blues
EXTD=YEAR: 2010
EXTT0=
EXTT1=
EXTT2=
EXTT3=
EXTT4=
EXTT5=
EXTT6=
EXTT7=
EXTT8=
EXTT9=
EXTT10=
PLAYORDER=
